<?xml version="1.0" encoding="UTF-8"?>
<svg version="1.1" xmlns="http://www.w3.org/2000/svg" width="97" height="96">
<path d="M0 0 C3.444375 -0.061875 6.88875 -0.12375 10.4375 -0.1875 C11.50411865 -0.21481201 12.5707373 -0.24212402 13.66967773 -0.27026367 C20.90625637 -0.33252677 27.59919757 0.22566118 33.375 4.9375 C33.91125 5.618125 34.4475 6.29875 35 7 C35.556875 7.680625 36.11375 8.36125 36.6875 9.0625 C39.77134001 13.61483525 39.56399396 18.71255665 39 24 C37.3317083 29.3222132 34.75990966 32.9815207 30 36 C26.20102382 37.80888184 23.23671089 38.23832524 19.04296875 38.1953125 C18.04031982 38.19031738 17.0376709 38.18532227 16.00463867 38.18017578 C14.74498291 38.16196777 13.48532715 38.14375977 12.1875 38.125 C6.1546875 38.063125 6.1546875 38.063125 0 38 C0 25.46 0 12.92 0 0 Z M11 10 C11 16.27 11 22.54 11 29 C19.06598276 29.57764397 19.06598276 29.57764397 26 26 C27.74873855 22.5025229 27.54611607 18.81623278 27 15 C25.37768449 11.71055624 25.37768449 11.71055624 22 10 C18.2285392 9.59742834 14.81385881 9.77024947 11 10 Z " fill="#0CD3F7" transform="translate(40,29)"/>
<path d="M0 0 C0.9075 0.00257812 1.815 0.00515625 2.75 0.0078125 C4.11125 0.00394531 4.11125 0.00394531 5.5 0 C7.75 0.1328125 7.75 0.1328125 8.75 1.1328125 C8.83858646 3.87175335 8.86523479 6.5853452 8.84765625 9.32421875 C8.8462413 10.14405746 8.84482635 10.96389618 8.84336853 11.80857849 C8.83775289 14.43752632 8.82519779 17.06639023 8.8125 19.6953125 C8.80748701 21.47330607 8.80292376 23.25130096 8.79882812 25.02929688 C8.78777839 29.39716795 8.77050331 33.76497598 8.75 38.1328125 C4.79 38.1328125 0.83 38.1328125 -3.25 38.1328125 C-3.27464928 32.88175808 -3.29283568 27.63073705 -3.30493164 22.37963867 C-3.30997218 20.59187229 -3.31680454 18.80411005 -3.32543945 17.01635742 C-3.3375173 14.45230082 -3.34323094 11.88829853 -3.34765625 9.32421875 C-3.35281754 8.5200502 -3.35797882 7.71588165 -3.36329651 6.88734436 C-3.36349215 4.96879535 -3.31201983 3.05035882 -3.25 1.1328125 C-2.25 0.1328125 -2.25 0.1328125 0 0 Z " fill="#7568FE" transform="translate(25.25,28.8671875)"/>
<path d="M0 0 C3.444375 -0.061875 6.88875 -0.12375 10.4375 -0.1875 C11.50411865 -0.21481201 12.5707373 -0.24212402 13.66967773 -0.27026367 C19.81147636 -0.32310735 25.44368176 0.17158149 31 3 C31.33 3.66 31.66 4.32 32 5 C30.70903219 5.81360995 29.41720125 6.62585046 28.125 7.4375 C27.40570313 7.88996094 26.68640625 8.34242187 25.9453125 8.80859375 C22.34965006 11.01075649 20.58374936 11.00295051 16.375 10.5625 C15.37210938 10.46066406 14.36921875 10.35882813 13.3359375 10.25390625 C12.56507812 10.17011719 11.79421875 10.08632813 11 10 C11.11601563 10.556875 11.23203125 11.11375 11.3515625 11.6875 C11.67410346 14.41527498 11.69626039 16.32619532 11 19 C8.03357199 22.22024003 4.7025013 24.67723423 1 27 C0.67 27 0.34 27 0 27 C0 18.09 0 9.18 0 0 Z " fill="#4F77F7" transform="translate(40,29)"/>
<path d="M0 0 C2.475 0.495 2.475 0.495 5 1 C5.23783203 2.57201172 5.23783203 2.57201172 5.48046875 4.17578125 C5.71500956 5.55488123 5.95074969 6.93377761 6.1875 8.3125 C6.28869141 9.00279297 6.38988281 9.69308594 6.49414062 10.40429688 C7.09276038 13.7533317 7.58838203 15.64130434 10.1875 17.90625 C13.41380447 19.16092396 16.38114226 19.73691767 19.8125 20.1875 C21.55466797 20.42533203 21.55466797 20.42533203 23.33203125 20.66796875 C24.65267578 20.83232422 24.65267578 20.83232422 26 21 C26 22.65 26 24.3 26 26 C17.78650472 26.41451285 10.43740796 26.18583136 3.5625 21.25 C-0.93203689 14.77786688 -0.22368311 7.56794535 0 0 Z " fill="#10D7F4" transform="translate(0,70)"/>
<path d="M0 0 C8.21349528 -0.41451285 15.56259204 -0.18583136 22.4375 4.75 C26.93203689 11.22213312 26.22368311 18.43205465 26 26 C24.35 25.67 22.7 25.34 21 25 C20.84144531 23.95199219 20.68289062 22.90398438 20.51953125 21.82421875 C20.28499044 20.44511877 20.04925031 19.06622239 19.8125 17.6875 C19.71130859 16.99720703 19.61011719 16.30691406 19.50585938 15.59570312 C18.90723962 12.2466683 18.41161797 10.35869566 15.8125 8.09375 C12.58619553 6.83907604 9.61885774 6.26308233 6.1875 5.8125 C5.02605469 5.65394531 3.86460938 5.49539062 2.66796875 5.33203125 C1.78753906 5.22246094 0.90710938 5.11289063 0 5 C0 3.35 0 1.7 0 0 Z " fill="#A460ED" transform="translate(70,0)"/>
<path d="M0 0 C1.32 0 2.64 0 4 0 C4.41558589 8.23475736 4.12763708 15.482302 -0.6875 22.4375 C-7.09554425 26.76725963 -14.57844431 26.24556618 -22 26 C-22 24.35 -22 22.7 -22 21 C-20.87980469 20.84144531 -19.75960937 20.68289062 -18.60546875 20.51953125 C-17.13262916 20.28500265 -15.65998222 20.04926197 -14.1875 19.8125 C-13.44951172 19.71130859 -12.71152344 19.61011719 -11.95117188 19.50585938 C-8.4614244 18.92160301 -6.42402058 18.48544811 -4.05859375 15.77734375 C-2.90205645 12.74303372 -2.31077397 9.96680421 -1.875 6.75 C-1.0878187 1.0878187 -1.0878187 1.0878187 0 0 Z " fill="#3CECD6" transform="translate(92,70)"/>
<path d="M0 0 C0 1.65 0 3.3 0 5 C-1.12019531 5.15855469 -2.24039062 5.31710938 -3.39453125 5.48046875 C-4.86737084 5.71499735 -6.34001778 5.95073803 -7.8125 6.1875 C-8.91948242 6.33928711 -8.91948242 6.33928711 -10.04882812 6.49414062 C-13.53508433 7.07781248 -15.57464803 7.51290339 -17.9375 10.21875 C-19.10271597 13.26887415 -19.72583342 16.08083397 -20.1875 19.3125 C-20.34605469 20.38113281 -20.50460938 21.44976563 -20.66796875 22.55078125 C-20.77753906 23.35902344 -20.88710938 24.16726562 -21 25 C-22.65 25.33 -24.3 25.66 -26 26 C-26.41558589 17.76524264 -26.12763708 10.517698 -21.3125 3.5625 C-14.90445575 -0.76725963 -7.42155569 -0.24556618 0 0 Z " fill="#CC5BDB" transform="translate(26,0)"/>
<path d="M0 0 C6.93 0 13.86 0 21 0 C17.54730039 3.45269961 14.25323077 6.55705013 10.5 9.625 C9.5821875 10.38039063 8.664375 11.13578125 7.71875 11.9140625 C5 14 5 14 0 17 C0 11.39 0 5.78 0 0 Z " fill="#616FFB" transform="translate(40,29)"/>
<path d="M0 0 C0.9075 0.00257812 1.815 0.00515625 2.75 0.0078125 C4.11125 0.00394531 4.11125 0.00394531 5.5 0 C7.75 0.1328125 7.75 0.1328125 8.75 1.1328125 C9.25 4.3203125 9.25 4.3203125 8.75 8.1328125 C5.4849708 12.19800378 1.58737078 14.35326159 -3.25 16.1328125 C-3.27685095 13.65357449 -3.29676547 11.1746241 -3.3125 8.6953125 C-3.32506836 7.63473633 -3.32506836 7.63473633 -3.33789062 6.55273438 C-3.34653588 4.74587691 -3.30220011 2.93893647 -3.25 1.1328125 C-2.25 0.1328125 -2.25 0.1328125 0 0 Z " fill="#B35FE7" transform="translate(25.25,28.8671875)"/>
<path d="M0 0 C2.84820505 1.33509612 4.1921829 3.41946904 6 5.9375 C4.54144353 9.62396141 2.69770955 11.09893971 -0.625 13.1875 C-1.44226563 13.70828125 -2.25953125 14.2290625 -3.1015625 14.765625 C-4.04128906 15.34570312 -4.04128906 15.34570312 -5 15.9375 C-5.45572917 13.95182292 -5.91145833 11.96614583 -6.3671875 9.98046875 C-6.98007723 7.66007026 -6.98007723 7.66007026 -9 4.9375 C-6.40910026 2.08751028 -4.02001614 -0.1256255 0 0 Z " fill="#169EF4" transform="translate(72,34.0625)"/>
<path d="M0 0 C1.0630613 8.38637251 1.0630613 8.38637251 -1.41796875 12.15234375 C-4.36430857 15.12381227 -7.19120379 17.24727962 -11 19 C-12.2225065 9.61047089 -12.2225065 9.61047089 -9.2890625 5.74609375 C-2.64326722 0 -2.64326722 0 0 0 Z " fill="#179AF3" transform="translate(51,48)"/>
<path d="M0 0 C0 4.29 0 8.58 0 13 C-3.96 13 -7.92 13 -12 13 C-12 8 -12 8 -10.1015625 6.015625 C-9.28429687 5.43296875 -8.46703125 4.8503125 -7.625 4.25 C-6.40683594 3.36054687 -6.40683594 3.36054687 -5.1640625 2.453125 C-1.51075269 0 -1.51075269 0 0 0 Z " fill="#3A7FF5" transform="translate(34,54)"/>
<path d="M0 0 C2.61281488 5.87883349 2.18328202 11.70731728 2 18 C0.35 17.67 -1.3 17.34 -3 17 C-3.66 12.05 -4.32 7.1 -5 2 C-2 0 -2 0 0 0 Z " fill="#1D91F2" transform="translate(94,8)"/>
<path d="M0 0 C4.62 0 9.24 0 14 0 C11.01906873 3.72616409 8.963971 6.04221043 5.3125 8.8125 C4.52488281 9.41707031 3.73726562 10.02164063 2.92578125 10.64453125 C1 12 1 12 0 12 C0 8.04 0 4.08 0 0 Z " fill="#7568FD" transform="translate(40,29)"/>
<path d="M0 0 C2.475 0.495 2.475 0.495 5 1 C6.34346122 5.03038366 6.26676927 8.79838392 6 13 C4.625 15 4.625 15 3 16 C2.34 16 1.68 16 1 16 C-0.06723961 12.53777385 -0.10173486 9.35960734 -0.0625 5.75 C-0.04896484 4.13351563 -0.04896484 4.13351563 -0.03515625 2.484375 C-0.02355469 1.66453125 -0.01195312 0.8446875 0 0 Z " fill="#3382F2" transform="translate(0,70)"/>
<path d="M0 0 C0.33984375 2.23046875 0.33984375 2.23046875 0 5 C-2.37109375 7.23828125 -2.37109375 7.23828125 -5.4375 9.3125 C-6.44683594 10.00988281 -7.45617187 10.70726562 -8.49609375 11.42578125 C-11 13 -11 13 -12 13 C-12.3125 9.75 -12.3125 9.75 -12 6 C-8.56725851 2.47190458 -4.96970402 0 0 0 Z " fill="#5873F9" transform="translate(34,49)"/>
<path d="M0 0 C-0.97819024 1.31322788 -1.9575811 2.62556152 -2.9375 3.9375 C-3.75541016 5.03384766 -3.75541016 5.03384766 -4.58984375 6.15234375 C-6 8 -6 8 -7 9 C-8.51928038 9.07179964 -10.04167482 9.08392007 -11.5625 9.0625 C-12.38878906 9.05347656 -13.21507812 9.04445313 -14.06640625 9.03515625 C-14.70449219 9.02355469 -15.34257813 9.01195313 -16 9 C-14.33333333 7.33333333 -12.66666667 5.66666667 -11 4 C-10.38125 3.236875 -9.7625 2.47375 -9.125 1.6875 C-6.10682833 -0.70928338 -3.73692212 -0.28745555 0 0 Z " fill="#08BDFB" transform="translate(57,58)"/>
<path d="M0 0 C-0.3176372 3.22652525 -0.68203931 4.67830592 -2.99609375 7.01953125 C-4.20458984 7.90705078 -4.20458984 7.90705078 -5.4375 8.8125 C-6.24058594 9.41707031 -7.04367188 10.02164063 -7.87109375 10.64453125 C-10 12 -10 12 -12 12 C-12.5625 9.375 -12.5625 9.375 -12 6 C-8.47913314 2.78340558 -4.85446401 0 0 0 Z " fill="#9862F3" transform="translate(34,33)"/>
<path d="M0 0 C3.21007263 1.36428087 4.53922114 3.23026386 6.5 6.0625 C3.5 8.0625 3.5 8.0625 1.6875 7.875 C-1.15991787 6.81738765 -3.81017712 5.46854378 -6.5 4.0625 C-3.2424594 0.08106148 -3.2424594 0.08106148 0 0 Z " fill="#8364FB" transform="translate(87.5,1.9375)"/>
<path d="M0 0 C0.30859375 2.23046875 0.30859375 2.23046875 0 5 C-2.15234375 7.23828125 -2.15234375 7.23828125 -4.9375 9.3125 C-5.85402344 10.00988281 -6.77054688 10.70726562 -7.71484375 11.42578125 C-10 13 -10 13 -11 13 C-11.30859375 10.76953125 -11.30859375 10.76953125 -11 8 C-8.84765625 5.76171875 -8.84765625 5.76171875 -6.0625 3.6875 C-5.14597656 2.99011719 -4.22945312 2.29273438 -3.28515625 1.57421875 C-1 0 -1 0 0 0 Z " fill="#3083F3" transform="translate(51,43)"/>
<path d="M0 0 C0.33 0 0.66 0 1 0 C1.375 2.25 1.375 2.25 1 5 C-1.625 7.0625 -1.625 7.0625 -5 9 C-6.13084302 9.74116063 -7.25618512 10.49080419 -8.375 11.25 C-9.24125 11.8275 -10.1075 12.405 -11 13 C-11.30859375 10.734375 -11.30859375 10.734375 -11 8 C-8.84765625 6.015625 -8.84765625 6.015625 -6.0625 4.25 C-5.14597656 3.65703125 -4.22945312 3.0640625 -3.28515625 2.453125 C-2.53105469 1.97359375 -1.77695312 1.4940625 -1 1 C-0.67 0.67 -0.34 0.34 0 0 Z " fill="#8665FB" transform="translate(33,37)"/>
<path d="M0 0 C2.97 0 5.94 0 9 0 C3.375 6.875 3.375 6.875 0 8 C0 5.36 0 2.72 0 0 Z " fill="#8365FB" transform="translate(40,29)"/>
<path d="M0 0 C2.475 0.99 2.475 0.99 5 2 C2.13818589 5.16305771 -1.2099782 7.1049891 -5 9 C-5.66 8.67 -6.32 8.34 -7 8 C-5.61918777 3.8575633 -3.40174442 2.67796901 0 0 Z " fill="#3282F3" transform="translate(67,31)"/>
<path d="M0 0 C0.66 0 1.32 0 2 0 C2 2.31 2 4.62 2 7 C-0.97 7 -3.94 7 -7 7 C-4.66666667 4.66666667 -2.33333333 2.33333333 0 0 Z " fill="#1E8EF2" transform="translate(32,60)"/>
<path d="M0 0 C0.66 0 1.32 0 2 0 C2.66 1.98 3.32 3.96 4 6 C2.35 6.66 0.7 7.32 -1 8 C-1.66 7.34 -2.32 6.68 -3 6 C-2.63318342 3.06546739 -2.13562754 2.13562754 0 0 Z " fill="#13A4F5" transform="translate(5,83)"/>
<path d="M0 0 C1.134375 0.020625 2.26875 0.04125 3.4375 0.0625 C2.48328192 1.21176266 1.52397955 2.35680541 0.5625 3.5 C0.02882813 4.13808594 -0.50484375 4.77617188 -1.0546875 5.43359375 C-2.5625 7.0625 -2.5625 7.0625 -4.5625 8.0625 C-4.60491723 5.72955225 -4.60342937 3.39547433 -4.5625 1.0625 C-3.5625 0.0625 -3.5625 0.0625 0 0 Z " fill="#C45CDF" transform="translate(26.5625,28.9375)"/>
<path d="M0 0 C0.33 1.32 0.66 2.64 1 4 C-4.445 7.96 -4.445 7.96 -10 12 C-10 9 -10 9 -7.8125 6.73828125 C-6.884375 5.93777344 -5.95625 5.13726562 -5 4.3125 C-4.071875 3.50425781 -3.14375 2.69601563 -2.1875 1.86328125 C-1.1046875 0.94095703 -1.1046875 0.94095703 0 0 Z " fill="#4979F7" transform="translate(33,50)"/>
<path d="M0 0 C0.33 1.98 0.66 3.96 1 6 C-0.65 6.66 -2.3 7.32 -4 8 C-4.33 6.02 -4.66 4.04 -5 2 C-2 0 -2 0 0 0 Z " fill="#4A79F7" transform="translate(94,8)"/>
<path d="M0 0 C0 0.66 0 1.32 0 2 C-1.86328125 3.7265625 -1.86328125 3.7265625 -4.3125 5.625 C-5.11300781 6.25664063 -5.91351563 6.88828125 -6.73828125 7.5390625 C-9 9 -9 9 -12 9 C-10.6015209 5.5912072 -9.14993067 4.12606165 -6 2.25 C-5.29875 1.82203125 -4.5975 1.3940625 -3.875 0.953125 C-2 0 -2 0 0 0 Z " fill="#2C84F2" transform="translate(34,58)"/>
<path d="M0 0 C0 1.32 0 2.64 0 4 C-4 6 -8 8 -12 10 C-10.80230322 6.40690966 -9.5323211 5.57906747 -6.5625 3.3125 C-5.75941406 2.68988281 -4.95632812 2.06726562 -4.12890625 1.42578125 C-2 0 -2 0 0 0 Z " fill="#676DFC" transform="translate(34,45)"/>
<path d="M0 0 C0.86625 0.3403125 0.86625 0.3403125 1.75 0.6875 C1 2.625 1 2.625 -0.25 4.6875 C-2.375 5.4375 -2.375 5.4375 -4.25 5.6875 C-4.91 4.6975 -5.57 3.7075 -6.25 2.6875 C-2.80384615 -0.38942308 -2.80384615 -0.38942308 0 0 Z " fill="#07BFFB" transform="translate(11.25,88.3125)"/>
<path d="M0 0 C-1.24196122 1.15454162 -2.49392845 2.29832562 -3.75 3.4375 C-4.79414063 4.39462891 -4.79414063 4.39462891 -5.859375 5.37109375 C-7.98792725 6.99081325 -9.39023405 7.58267256 -12 8 C-12 7.01 -12 6.02 -12 5 C-10.13671875 3.359375 -10.13671875 3.359375 -7.6875 1.75 C-6.88699219 1.20859375 -6.08648437 0.6671875 -5.26171875 0.109375 C-3 -1 -3 -1 0 0 Z " fill="#A461ED" transform="translate(34,34)"/>
<path d="M0 0 C0.66 0.33 1.32 0.66 2 1 C0.47005208 2.23697917 -1.05989583 3.47395833 -2.58984375 4.7109375 C-4.13266437 5.9666391 -4.13266437 5.9666391 -5 8 C-6.65 8 -8.3 8 -10 8 C-6.91367389 4.7373124 -4.06516496 1.97764782 0 0 Z " fill="#417DF5" transform="translate(65,31)"/>
<path d="M0 0 C3.875 1.75 3.875 1.75 5 4 C2 6 2 6 -0.1875 5.625 C-0.785625 5.41875 -1.38375 5.2125 -2 5 C-2 2 -2 2 0 0 Z " fill="#686DFC" transform="translate(89,4)"/>
<path d="M0 0 C2.475 0.495 2.475 0.495 5 1 C4.75 2.875 4.75 2.875 4 5 C1.9375 6.25 1.9375 6.25 0 7 C0 4.69 0 2.38 0 0 Z " fill="#4E77F8" transform="translate(0,70)"/>
<path d="M0 0 C0.66 0.33 1.32 0.66 2 1 C0.92130607 1.96355244 -0.16318743 2.92061417 -1.25 3.875 C-1.85328125 4.40867187 -2.4565625 4.94234375 -3.078125 5.4921875 C-4.97418746 6.9797487 -6.81290005 8.00322436 -9 9 C-7.48328036 4.44984107 -3.83108947 2.49942736 0 0 Z " fill="#417CF5" transform="translate(49,42)"/>
<path d="M0 0 C2.31 0 4.62 0 7 0 C5.1875 2.5 5.1875 2.5 3 5 C2.01 5 1.02 5 0 5 C0 3.35 0 1.7 0 0 Z " fill="#B75EE4" transform="translate(70,0)"/>
<path d="M0 0 C1.98 0 3.96 0 6 0 C4.35830472 2.02054804 2.69088222 4.02043058 1 6 C0.67 6 0.34 6 0 6 C0 4.02 0 2.04 0 0 Z " fill="#9162F5" transform="translate(40,29)"/>
<path d="M0 0 C0.6875 1.8125 0.6875 1.8125 1 4 C-0.3125 5.75 -0.3125 5.75 -2 7 C-2.66 7 -3.32 7 -4 7 C-3.43628586 3.73045798 -2.50037734 2.17424117 0 0 Z " fill="#1E8DF1" transform="translate(5,79)"/>
<path d="M0 0 C-1.04874998 2.62187494 -1.64931313 3.79371361 -4.125 5.25 C-4.74375 5.4975 -5.3625 5.745 -6 6 C-6 4.68 -6 3.36 -6 2 C-3 0 -3 0 0 0 Z " fill="#3282F2" transform="translate(96,14)"/>
<path d="M0 0 C2.25 0.25 2.25 0.25 4 1 C1.6875 3.0625 1.6875 3.0625 -1 5 C-1.99 4.67 -2.98 4.34 -4 4 C-2.25 1.9375 -2.25 1.9375 0 0 Z " fill="#9462F3" transform="translate(82,1)"/>
</svg>
