<?xml version="1.0" encoding="UTF-8"?>
<svg version="1.1" xmlns="http://www.w3.org/2000/svg" width="2000" height="2000">
<path d="M0 0 C1.69406982 0.31348389 1.69406982 0.31348389 3.42236328 0.63330078 C76.62320197 14.56389517 144.60742568 52.01203083 204.18310547 95.67041016 C206.28466643 97.20831676 208.3946057 98.73444603 210.50390625 100.26171875 C220.35808111 107.42802883 229.92739396 114.85861561 239.31933594 122.61914062 C241.5868871 124.48219545 243.88581347 126.30437336 246.1875 128.125 C250.5721511 131.61947864 254.84934313 135.23177003 259.11621094 138.86816406 C262.51410682 141.75986314 265.95556435 144.58433099 269.4375 147.375 C275.12635367 151.99927286 280.44227975 156.98649404 285.78515625 162 C288.19234594 164.2564364 290.629108 166.4663907 293.125 168.625 C298.52519617 173.29759079 303.76017832 178.14955784 309 183 C309.5832756 183.53970932 310.16655121 184.07941864 310.76750183 184.63548279 C322.52737453 195.54517033 333.94127663 206.78339241 345.26953125 218.13916016 C347.67167508 220.54707416 350.07838595 222.95036615 352.48637581 225.35243225 C354.82929784 227.69084932 357.16837983 230.03309202 359.5078125 232.375 C360.78448288 233.64863403 360.78448288 233.64863403 362.08694458 234.94799805 C366.40242543 239.2803668 370.57315719 243.67622904 374.54611206 248.32592773 C376.58267419 250.67091739 378.77557935 252.83411673 381 255 C384.57883516 258.48465529 387.87995089 262.12374475 391.1484375 265.89453125 C394.18078751 269.34270985 397.34250988 272.66673208 400.5 276 C404.90863371 280.6540628 409.23010841 285.35917615 413.43261719 290.20068359 C415.37968954 292.43587413 417.37494469 294.62470003 419.375 296.8125 C422.48528851 300.25378205 425.46478312 303.76321298 428.375 307.375 C432.05076558 311.92167867 435.91493698 316.22370199 439.89599609 320.49926758 C443.83697407 324.75766306 447.50283166 329.18828742 451.125 333.72265625 C452.90294474 335.97159126 452.90294474 335.97159126 454.75 337.68359375 C456 339 456 339 456 341 C463.06262394 334.15808306 469.32709473 326.64849529 475.515625 319.01953125 C478.80225886 315.02492751 482.17840997 311.11110293 485.55761719 307.19482422 C488.60236486 303.65745844 491.57623445 300.0763169 494.5 296.4375 C498.84902756 291.07633512 503.50799484 286.04429261 508.21484375 281 C510.97846336 278.03587706 513.65498708 275.00424383 516.30859375 271.94140625 C523.3820046 263.82250281 530.70090608 255.91568936 538 248 C538.53254395 247.42088867 539.06508789 246.84177734 539.61376953 246.24511719 C546.82667361 238.41059269 554.15516457 230.72804401 561.76269531 223.27416992 C564.78835809 220.29246046 567.6737845 217.26255615 570.4375 214.03515625 C574.05246578 209.84884953 577.99468772 206.11569532 582.0625 202.375 C587.67120161 197.1638089 593.18138517 191.88350084 598.5625 186.4375 C602.5057638 182.4549019 606.46597384 178.59252322 610.74609375 174.96875 C614.07437675 172.06154959 617.27833597 169.02437136 620.5 166 C625.58711662 161.23430508 630.69914721 156.52821927 636 152 C636.98742188 151.14535156 637.97484375 150.29070312 638.9921875 149.41015625 C652.69363057 137.57085209 666.67331412 126.07457341 681 115 C682.15991455 114.09894531 682.15991455 114.09894531 683.34326172 113.1796875 C694.83879723 104.26215406 706.4892155 95.69491965 718.58886719 87.61523438 C721.06041873 85.95952508 723.51910256 84.28591515 725.9765625 82.609375 C746.24945458 68.84481174 767.30653904 56.38849066 789 45 C789.92006836 44.51466797 790.84013672 44.02933594 791.78808594 43.52929688 C834.43825726 21.18101932 881.10251087 4.32480411 929 -2 C930.30477295 -2.17587646 931.6095459 -2.35175293 932.95385742 -2.53295898 C946.84883386 -4.26995103 960.70057528 -4.35711425 974.6875 -4.3125 C975.90232056 -4.31034485 977.11714111 -4.3081897 978.36877441 -4.30596924 C997.42468721 -4.25179576 1016.11648853 -3.71168011 1035 -1 C1035.6698291 -0.90525391 1036.3396582 -0.81050781 1037.02978516 -0.71289062 C1118.01787363 10.8164674 1192.84612743 42.37490189 1275.10546875 104.50390625 C1277.79314256 106.82161686 1280.53557505 109.04080193 1283.3125 111.25 C1294.71913528 120.56925389 1305.13711329 131.05245104 1315.5625 141.4375 C1316.39515381 142.26548096 1317.22780762 143.09346191 1318.08569336 143.9465332 C1322.93027074 148.8038273 1327.54325866 153.78631019 1332 159 C1332.94935982 160.08305005 1333.899828 161.16512986 1334.8515625 162.24609375 C1342.65208425 171.18978343 1349.89857479 180.49511811 1357 190 C1357.48887695 190.65145996 1357.97775391 191.30291992 1358.48144531 191.97412109 C1419.79668188 273.83226071 1455.22278527 374.64442244 1454.2736969 569.8817749 C1453.0888507 577.95340403 1451.75790708 585.99880102 1450.34515381 594.03344727 C1450.04069823 595.76811726 1449.7436529 597.50408433 1449.44775391 599.24023438 C1435.17607959 680.86569108 1393.76107124 759.89362067 1341 823 C1340.56494141 823.52142578 1340.12988281 824.04285156 1339.68164062 824.58007812 C1324.76423522 842.40101237 1308.78771482 859.99755014 1291 875 C1289.89164708 875.96954855 1288.78505833 876.94111547 1287.6796875 877.9140625 C1279.33932422 885.24029356 1270.84044487 892.28520743 1262 899 C1261.42878418 899.43489746 1260.85756836 899.86979492 1260.26904297 900.31787109 C1244.56040518 912.21274933 1228.09377235 923.19726295 1211 933 C1210.0109668 933.57065186 1210.0109668 933.57065186 1209.00195312 934.15283203 C1148.48345864 968.91545081 1082.32923771 989.01972019 1013 996 C1012.00613281 996.1045752 1011.01226563 996.20915039 1009.98828125 996.31689453 C998.77505868 997.34920537 987.50092327 997.24377808 976.25 997.25 C974.60644531 997.25101212 974.60644531 997.25101212 972.9296875 997.25204468 C957.07001614 997.23652045 941.6393023 996.86306213 926 994 C925.00887207 993.82839355 924.01774414 993.65678711 922.99658203 993.47998047 C828.10861725 976.85043739 743.53424597 923.69790557 652.61230469 848.37402344 C650.91328411 846.92609978 649.2105632 845.48259688 647.5078125 844.0390625 C640.80899218 838.34529448 634.23725042 832.54204589 627.78515625 826.5703125 C625.27294005 824.25188577 622.73736905 821.96431882 620.1875 819.6875 C610.98393951 811.41914001 601.82612942 803.05589178 593.22265625 794.16015625 C591.36266418 792.35246624 589.46930254 790.67642263 587.5 788.9921875 C582.27519187 784.4526398 577.40854105 779.55851935 572.52709961 774.6574707 C570.94040054 773.06541034 569.34842258 771.4787701 567.75585938 769.89257812 C562.86945343 765.00903224 558.09956027 760.07971245 553.60766602 754.82592773 C550.73197817 751.5598276 547.60755142 748.5434782 544.5 745.5 C540.06783529 741.15922013 535.83797245 736.73871538 531.78613281 732.04003906 C528.66525994 728.47552106 525.38704438 725.05986793 522.125 721.625 C516.32649067 715.49169301 510.60963758 709.30675759 505 703 C503.45903924 701.29102989 501.91736112 699.58270637 500.375 697.875 C494.09267952 690.88983816 487.95149638 683.79051645 481.84692383 676.65014648 C479.0466617 673.37742473 476.2351317 670.11521924 473.40625 666.8671875 C472.52187256 665.85120483 472.52187256 665.85120483 471.61962891 664.81469727 C470.47754744 663.50400455 469.33404643 662.1945471 468.18896484 660.88647461 C467.67027832 660.2910083 467.1515918 659.69554199 466.6171875 659.08203125 C466.15940918 658.55843018 465.70163086 658.0348291 465.22998047 657.49536133 C464 656 464 656 462 653 C458.39810723 654.20063092 457.65694143 655.39814637 455.375 658.375 C454.66601562 659.28507812 453.95703125 660.19515625 453.2265625 661.1328125 C452.12441406 662.55207031 452.12441406 662.55207031 451 664 C445.60957864 670.71297828 440.06713504 677.2849067 434.44458008 683.80322266 C431.38034233 687.36329649 428.38439018 690.96642794 425.4375 694.625 C421.33698767 699.67808144 416.98415243 704.45309348 412.5625 709.22265625 C409.89885863 712.10962121 407.30851652 715.04923334 404.734375 718.015625 C401.95834569 721.19180267 399.12763659 724.3182983 396.30078125 727.44921875 C394.8358989 729.07327337 393.37456169 730.70053785 391.91796875 732.33203125 C385.66478947 739.32770306 379.26600342 746.182137 372.84619141 753.02441406 C371.11137242 754.88082179 369.38812952 756.74720464 367.66796875 758.6171875 C358.19238342 768.86470917 348.35943763 778.74879509 338.5 788.625 C337.79586975 789.33171844 337.0917395 790.03843689 336.36627197 790.76657104 C334.32005465 792.81871641 332.27006524 794.86701421 330.21875 796.9140625 C329.61082611 797.5239653 329.00290222 798.1338681 328.3765564 798.76225281 C324.62460785 802.49440968 320.75003779 806.03235028 316.73730469 809.48287964 C314.5524532 811.39082515 312.51925806 813.41861092 310.5 815.5 C307.21145472 818.82769463 303.83618376 821.95336441 300.28515625 824.99609375 C297.93513231 827.05688398 295.64949784 829.17489502 293.36547852 831.30810547 C287.93508927 836.3789971 282.39936784 841.20999944 276.6015625 845.86328125 C274.05013271 847.95882494 271.61673227 850.13963155 269.1875 852.375 C264.81299174 856.35683587 260.25470925 860.01742083 255.58349609 863.63891602 C251.76676332 866.60052544 248.00768748 869.61971958 244.2800293 872.69262695 C234.79076538 880.50516772 224.97257709 887.81799126 215 895 C214.27135742 895.52480957 213.54271484 896.04961914 212.79199219 896.59033203 C151.57344672 940.53102378 84.26268687 977.01928094 9.875 992.3125 C8.77043457 992.54291992 7.66586914 992.77333984 6.52783203 993.01074219 C-14.92461181 997.1937384 -36.36929504 998.52545723 -58.1875 998.375 C-59.98343094 998.36851944 -59.98343094 998.36851944 -61.81564331 998.36190796 C-80.37320506 998.28363858 -98.61262937 997.68424979 -117 995 C-118.23282715 994.82307617 -119.4656543 994.64615234 -120.73583984 994.46386719 C-148.05081034 990.44011247 -174.6997076 984.39222648 -201 976 C-202.06541016 975.66129883 -203.13082031 975.32259766 -204.22851562 974.97363281 C-259.80394999 957.07732321 -313.96618268 927.85304473 -358.109375 889.4921875 C-360.77418199 887.19469174 -363.49413717 884.99903788 -366.25 882.8125 C-377.88059284 873.31642348 -388.4965896 862.58481731 -399.125 852 C-399.90617188 851.22350098 -400.68734375 850.44700195 -401.4921875 849.64697266 C-406.20008698 844.92588294 -410.66415456 840.06313142 -415 835 C-415.94945966 833.91703747 -416.89992909 832.83495913 -417.8515625 831.75390625 C-425.08862774 823.45624775 -431.86571531 814.86586897 -438.46240234 806.05224609 C-439.87990892 804.16028669 -441.30809305 802.27690747 -442.73828125 800.39453125 C-460.72521621 776.5149236 -475.5476306 750.64166629 -489 724 C-489.70406982 722.6080542 -489.70406982 722.6080542 -490.42236328 721.18798828 C-522.02578261 658.2136091 -540.94518976 584.638704 -541.203125 513.9765625 C-541.21364647 512.03788551 -541.21364647 512.03788551 -541.22438049 510.06004333 C-541.24376481 505.9150238 -541.2488141 501.7700603 -541.25 497.625 C-541.25044186 496.91886944 -541.25088371 496.21273888 -541.25133896 495.48521042 C-541.2582239 474.50724022 -540.98631544 453.80890013 -538 433 C-537.73461426 431.05552979 -537.73461426 431.05552979 -537.46386719 429.07177734 C-533.57510183 400.74647795 -527.68268527 373.49264908 -518.21533203 346.51123047 C-517.09004137 343.2601396 -516.01438133 339.998866 -514.96484375 336.72265625 C-506.77492275 311.17620963 -496.01436886 286.93807691 -484 263 C-483.53706543 262.07687012 -483.07413086 261.15374023 -482.59716797 260.20263672 C-466.90038804 229.13621702 -447.34046955 199.18358278 -424.4921875 172.890625 C-422.19469174 170.22581801 -419.99903788 167.50586283 -417.8125 164.75 C-408.46786978 153.30117113 -397.91719766 142.8377018 -387.5 132.375 C-386.77111572 131.64144287 -386.04223145 130.90788574 -385.29125977 130.15209961 C-380.68909693 125.5636196 -375.92590572 121.23640474 -371 117 C-369.84350201 115.97831443 -368.68850686 114.95492473 -367.53515625 113.9296875 C-358.3545042 105.8274895 -348.83592524 98.28925932 -339 91 C-338.26346191 90.45311523 -337.52692383 89.90623047 -336.76806641 89.34277344 C-271.12576597 40.79170388 -194.88872929 10.07281449 -114 -1 C-112.83146484 -1.16516113 -111.66292969 -1.33032227 -110.45898438 -1.50048828 C-74.42798712 -6.39677473 -35.78714232 -6.79502702 0 0 Z M-147 212 C-147.97855957 212.35545898 -148.95711914 212.71091797 -149.96533203 213.07714844 C-182.67901985 225.15941074 -215.17631998 242.70459773 -240.69921875 266.83984375 C-242.67546369 268.69529952 -244.69006538 270.46840446 -246.7421875 272.23828125 C-257.7761934 281.85954467 -268.06240237 292.40618177 -277 304 C-277.85046581 305.051424 -278.70347291 306.10079593 -279.55859375 307.1484375 C-319.24345809 356.09096878 -344.68855771 420.94623986 -345.23828125 484.265625 C-345.25297203 485.68131775 -345.25297203 485.68131775 -345.26795959 487.12561035 C-345.44877005 509.09109862 -344.99402824 530.33794403 -341 552 C-340.79632813 553.13131348 -340.59265625 554.26262695 -340.3828125 555.42822266 C-335.45048215 581.95852731 -326.61332791 607.66688804 -315 632 C-314.5870166 632.86850586 -314.1740332 633.73701172 -313.74853516 634.63183594 C-304.19774192 654.41430035 -291.92876202 673.01930166 -278 690 C-277.18660156 691.01578125 -276.37320313 692.0315625 -275.53515625 693.078125 C-268.97492389 701.10315819 -261.73994278 708.46969601 -254.4375 715.8125 C-253.71332382 716.54457672 -253.71332382 716.54457672 -252.97451782 717.29144287 C-246.33310532 723.98880531 -239.42118963 730.17282622 -232 736 C-231.32122803 736.53810303 -230.64245605 737.07620605 -229.94311523 737.63061523 C-187.86268533 770.65611435 -137.16085169 791.19507941 -84 797 C-83.04351562 797.11214844 -82.08703125 797.22429688 -81.1015625 797.33984375 C-3.45460581 804.93800439 67.76285105 760.97613665 125.57543945 713.47094727 C126.82669232 712.43842159 128.07760631 711.40548506 129.328125 710.37207031 C131.54838057 708.54995637 133.80459232 706.77513136 136.0625 705 C146.39187152 696.76088916 156.21565019 687.8722494 166 679 C166.76054688 678.32066406 167.52109375 677.64132812 168.3046875 676.94140625 C182.39550419 664.35207003 195.91967635 651.24191272 209.26416016 637.86621094 C212.02001355 635.10494716 214.78124028 632.3491364 217.54296875 629.59375 C219.32063359 627.81542508 221.09798859 626.03679037 222.875 624.2578125 C223.68864014 623.44619659 224.50228027 622.63458069 225.34057617 621.79837036 C229.56314186 617.55856139 233.62592686 613.2408279 237.5300293 608.70578003 C239.21064105 606.75556839 240.94811383 604.86865726 242.71875 603 C243.34136719 602.34 243.96398437 601.68 244.60546875 601 C245.86848958 599.66666667 247.13151042 598.33333333 248.39453125 597 C252.16263118 593.00565804 255.83305102 588.94620278 259.43261719 584.79931641 C261.37968954 582.56412587 263.37494469 580.37529997 265.375 578.1875 C269.32371445 573.81714316 273.0462721 569.29696921 276.75 564.71875 C278.93501569 562.07852271 281.19171391 559.5327028 283.5 557 C287.36533345 552.75348314 291.01398246 548.3698689 294.625 543.90625 C297.16665082 540.79607203 299.76597528 537.74101501 302.375 534.6875 C306.71186243 529.59768896 310.88213494 524.39635831 314.9909668 519.12133789 C319.2375689 513.67262073 323.5988236 508.32488009 328 503 C324.18864399 494.41946029 316.49245875 487.37793752 310.234375 480.515625 C307.98818434 477.98669705 305.86468782 475.38950086 303.75 472.75 C299.0910841 466.98765665 294.06672284 461.61507994 289 456.21484375 C286.19232123 453.219583 283.47947558 450.15444201 280.796875 447.046875 C277.97940831 443.83741295 275.07837438 440.70471184 272.18701172 437.56201172 C269.2718115 434.39184352 266.3760155 431.20588108 263.5 428 C258.86072116 422.83334311 254.17323478 417.71190621 249.47216797 412.6015625 C247.93927641 410.93393918 246.40906705 409.263879 244.87890625 407.59375 C240.23668776 402.53581045 235.58601948 397.51187595 230.67675781 392.7097168 C229.00754739 391.00769574 227.4685895 389.24265506 225.92578125 387.42578125 C221.52794963 382.37015678 216.77136732 377.70015288 212 373 C202.37071981 363.51444041 202.37071981 363.51444041 198.58984375 359.09765625 C194.33742953 354.14086204 189.70929206 349.55954322 185.0847168 344.9543457 C183.56508332 343.4400742 182.05087483 341.9205257 180.53710938 340.40039062 C175.75204576 335.61205251 170.91823326 330.93127658 165.7722168 326.52709961 C162.97982692 324.12092814 160.31257767 321.58423497 157.625 319.0625 C152.28180112 314.09672183 146.76751813 309.46961166 141 305 C139.44502805 303.7640481 137.8900622 302.52808853 136.33520508 301.29199219 C99.79884112 272.3549833 60.89815272 246.21056595 19.66992188 224.41503906 C16.95437386 222.97581848 14.2504911 221.51617962 11.546875 220.0546875 C1.40617825 214.61725709 -8.87569277 209.52178771 -19.34274292 204.74606323 C-20.5942761 204.17447561 -21.84412158 203.59917506 -23.09207153 203.01980591 C-34.26593915 197.85115992 -44.22854484 195.61067994 -56.5 195.6875 C-57.48210449 195.69313965 -58.46420898 195.6987793 -59.47607422 195.70458984 C-89.16922974 196.17546576 -119.11097479 201.84869021 -147 212 Z M894 215 C893.1239209 215.39058594 892.2478418 215.78117187 891.34521484 216.18359375 C855.41614914 232.36128711 822.4318426 255.11106791 792 280 C791.03707031 280.77988281 790.07414062 281.55976562 789.08203125 282.36328125 C779.26828386 290.33606592 769.5994573 298.46740622 760.2421875 306.97265625 C758.28791576 308.73967199 756.30940263 310.46913529 754.3125 312.1875 C749.06913169 316.75702178 744.02389535 321.54191577 738.953125 326.30078125 C736.51891396 328.5844773 734.07389449 330.85453129 731.609375 333.10546875 C723.02205615 340.97707451 714.74457645 349.14777753 706.5 357.375 C705.93324554 357.93916626 705.36649109 358.50333252 704.78256226 359.08459473 C699.15568278 364.69118412 693.59306463 370.30480343 688.43164062 376.35009766 C686.40336719 378.68759286 684.21643355 380.84189364 682 383 C678.4974969 386.46569 675.17911736 389.99690792 671.9765625 393.73828125 C669.37614258 396.71386057 666.68838426 399.60399305 664 402.5 C657.08596331 409.96360855 650.44250373 417.63692568 643.83081055 425.36816406 C640.56451067 429.18516848 637.2785787 432.98422807 633.97924805 436.77270508 C629.03807727 442.44922513 624.16459774 448.16400188 619.42578125 454.01171875 C616.38782827 457.75412459 613.31826816 461.4699424 610.25 465.1875 C603.45814548 473.42446947 596.720825 481.70502828 590 490 C591.44715792 494.69676401 594.21062557 497.67772806 597.5625 501.125 C601.35138405 505.11707164 605.00383389 509.12946166 608.4375 513.4375 C613.02146062 519.14866406 617.99296439 524.44839082 623 529.78515625 C625.80517254 532.77774333 628.51614046 535.8396056 631.1953125 538.9453125 C634.06175648 542.20883963 637.01751517 545.39060792 639.96020508 548.58520508 C642.45141289 551.29470801 644.91168368 554.02269065 647.3125 556.8125 C651.33094567 561.45065777 655.55327613 565.89847438 659.74975586 570.37475586 C662.99685172 573.84196467 666.21584508 577.32702601 669.375 580.875 C675.26283901 587.4593671 681.35464421 593.85484633 687.42749023 600.26806641 C689.34989669 602.30960843 691.26208312 604.35890162 693.16821289 606.41552734 C704.77022431 618.89245976 716.77267945 630.96024395 728.81958008 643.00488281 C731.74681628 645.93201652 734.66704726 648.86603657 737.58567524 651.80175018 C739.8755883 654.10286657 742.17011818 656.39933778 744.46590233 658.69459534 C745.54418645 659.77404176 746.62089217 660.85506778 747.69582558 661.93785095 C754.4701126 668.7570817 761.4656665 675.02085273 769 681 C770.17115248 681.98272665 771.33740303 682.97136061 772.49609375 683.96875 C778.91881643 689.4958739 785.46014925 694.73959275 792.30322266 699.74511719 C794.08589797 701.06352742 795.84605248 702.40854136 797.60546875 703.7578125 C808.90306422 712.34169638 820.64559595 720.2426482 832.4375 728.125 C833.25231842 728.671633 834.06713684 729.21826599 834.90664673 729.78146362 C847.04554639 737.91455535 859.39854117 745.6046589 872 753 C873.07677002 753.63260742 874.15354004 754.26521484 875.26293945 754.91699219 C901.37291465 770.10121559 928.14028593 783.37058523 956 795 C956.77424316 795.34305176 957.54848633 795.68610352 958.34619141 796.03955078 C963.54509655 798.23217189 968.20213767 798.463459 973.75 798.375 C974.69246582 798.36557373 975.63493164 798.35614746 976.60595703 798.34643555 C1020.53246444 797.45252008 1064.32143992 785.78265545 1103 765 C1103.69577148 764.63471191 1104.39154297 764.26942383 1105.10839844 763.89306641 C1126.68538984 752.5481165 1146.4043491 738.4152733 1164.12109375 721.69140625 C1166.34744442 719.61005535 1168.59489673 717.63220887 1170.9375 715.6875 C1181.37805354 706.61258848 1190.38751741 695.77823722 1198.68212891 684.75048828 C1199.99953962 683.00061151 1201.33336662 681.26412806 1202.66796875 679.52734375 C1220.87108439 655.56183006 1234.55513087 629.15072314 1245 601 C1245.30276855 600.1843457 1245.60553711 599.36869141 1245.91748047 598.52832031 C1272.87716001 524.65530329 1268.07330259 439.73210447 1235.5625 368.4375 C1217.34362295 329.54312358 1191.07202803 292.73612574 1158 265 C1157.48147461 264.5570459 1156.96294922 264.1140918 1156.42871094 263.65771484 C1140.61125901 250.18506107 1123.39174534 238.66226171 1105 229 C1104.36320312 228.66307129 1103.72640625 228.32614258 1103.0703125 227.97900391 C1037.6366627 193.60334401 962.3099025 184.3891346 894 215 Z " fill="#29AAE1" transform="translate(541,503)"/>
<path d="M0 0 C1.98379214 0.00016524 3.96758384 -0.00255692 5.95137405 -0.00532532 C27.07435404 -0.00198938 48.18077331 0.31817125 68.82756424 5.18766785 C70.59607742 5.58840515 70.59607742 5.58840515 72.40031815 5.99723816 C74.75582887 6.53346757 77.10990942 7.07602828 79.46232986 7.62565613 C82.33393731 8.28989926 85.20966409 8.91761882 88.09318924 9.5275116 C108.23007816 13.89167631 130.21061016 20.17580918 148.70256424 29.37516785 C149.03256424 30.03516785 149.36256424 30.69516785 149.70256424 31.37516785 C148.99575516 31.3594574 148.28894608 31.34374695 147.56071854 31.32756042 C112.06593727 30.65062608 77.19299267 35.18500661 43.70256424 47.37516785 C42.72400467 47.73062683 41.7454451 48.08608582 40.73723221 48.45231628 C8.02354439 60.53457859 -24.47375574 78.07976558 -49.99665451 102.2150116 C-51.98333596 104.08026599 -54.0088183 105.8643237 -56.07087326 107.6446991 C-66.75046148 116.95692282 -76.62742647 127.17109334 -85.29743576 138.37516785 C-86.14940168 139.42773423 -87.00369161 140.47842252 -87.85993576 141.5275116 C-127.53940903 190.47502701 -152.98597629 255.31942886 -153.53571701 318.64079285 C-153.55040779 320.0564856 -153.55040779 320.0564856 -153.56539536 321.5007782 C-153.74620581 343.46626647 -153.29146401 364.71311188 -149.29743576 386.37516785 C-149.09376389 387.50648132 -148.89009201 388.6377948 -148.68024826 389.8033905 C-143.74791792 416.33369516 -134.91076367 442.04205588 -123.29743576 466.37516785 C-122.67796066 467.67792664 -122.67796066 467.67792664 -122.04597092 469.00700378 C-112.49565966 488.78846987 -100.22815996 507.39709772 -86.29743576 524.37516785 C-85.47243576 525.40255066 -84.64743576 526.42993347 -83.79743576 527.4884491 C-77.38886569 535.31130822 -70.35990524 542.521365 -63.23493576 549.68766785 C-62.3251799 550.60668884 -61.41542404 551.52570984 -60.47809982 552.47257996 C-54.39249735 558.53028188 -48.04444336 564.06729612 -41.29743576 569.37516785 C-40.61801926 569.91391541 -39.93860275 570.45266296 -39.23859787 571.00773621 C2.84764099 604.0282199 53.5387846 624.56992754 106.70256424 630.37516785 C107.65904861 630.48731628 108.61553299 630.59946472 109.60100174 630.7150116 C187.24795843 638.31317224 258.46541528 594.3513045 316.27800369 546.84611511 C317.52925656 545.81358943 318.78017055 544.78065291 320.03068924 543.74723816 C322.25094481 541.92512422 324.50715656 540.15029921 326.76506424 538.37516785 C337.09443576 530.136057 346.91821443 521.24741725 356.70256424 512.37516785 C357.46311111 511.69583191 358.22365799 511.01649597 359.00725174 510.3165741 C372.94741573 497.86183742 386.33810305 484.90172247 399.5394783 471.66862488 C402.2229028 468.97978826 404.91170216 466.29640829 407.60100174 463.6134491 C409.33309367 461.8806971 411.06487578 460.14763532 412.79631424 458.41423035 C413.5880806 457.62448822 414.37984695 456.83474609 415.19560623 456.02107239 C419.36453631 451.83466475 423.36912718 447.56535464 427.22490311 443.08863831 C428.90855304 441.13630678 430.64820505 439.24643502 432.42131424 437.37516785 C433.04393143 436.71516785 433.66654861 436.05516785 434.30803299 435.37516785 C435.57105382 434.04183451 436.83407466 432.70850118 438.09709549 431.37516785 C441.86519542 427.38082589 445.53561526 423.32137063 449.13518143 419.17448425 C451.08225378 416.93929372 453.07750893 414.75046781 455.07756424 412.56266785 C459.02627869 408.19231101 462.74883634 403.67213706 466.45256424 399.09391785 C468.63757993 396.45369055 470.89427815 393.90787064 473.20256424 391.37516785 C477.06789769 387.12865099 480.7165467 382.74503675 484.32756424 378.28141785 C486.86921401 375.17124116 489.46850146 372.11614911 492.07756424 369.06266785 C496.39403408 363.99796963 500.53755082 358.8187704 504.62321854 353.56681824 C509.18152082 347.72189174 513.92094606 342.03842929 518.70256424 336.37516785 C524.67208446 341.20158845 529.65989416 346.59918309 534.70256424 352.37516785 C535.26588455 353.01196472 535.82920486 353.6487616 536.40959549 354.30485535 C539.10891283 357.3653952 541.77313421 360.45453417 544.41740799 363.56266785 C549.31830467 369.31781248 554.24431325 375.02430569 559.39006424 380.56266785 C562.75839871 384.18799993 565.98178444 387.88749178 569.07756424 391.75016785 C573.12858147 396.78852978 577.47479981 401.47821544 581.90300369 406.18107605 C585.94510617 410.49725942 589.69844532 414.98011283 593.39397049 419.5978241 C596.05535989 422.79959713 598.85720089 425.8375021 601.70256424 428.87516785 C606.16133115 433.6360344 610.3405446 438.53984862 614.42522049 443.6290741 C616.92082814 446.63835742 619.54019905 449.51457071 622.20256424 452.37516785 C626.4422913 456.93057262 630.40582217 461.648007 634.29631424 466.5040741 C637.60362779 470.4503005 641.12903299 474.18188304 644.7179451 477.87297058 C647.56022508 480.86146513 649.48214976 483.41430169 650.70256424 487.37516785 C648.55455164 490.00051658 646.40635797 492.62571413 644.25725174 495.25016785 C642.67461087 497.18410973 641.09702896 499.12177765 639.52287674 501.06266785 C634.82139874 506.84910231 630.01619751 512.53370379 625.14690018 518.17863464 C622.08277706 521.7386542 619.08688196 525.34168574 616.14006424 529.00016785 C612.03955191 534.05324929 607.68671667 538.82826132 603.26506424 543.5978241 C600.60142287 546.48478906 598.01108076 549.42440119 595.43693924 552.39079285 C592.66090993 555.56697052 589.83020082 558.69346615 587.00334549 561.8243866 C585.53846314 563.44844122 584.07712593 565.0757057 582.62053299 566.7071991 C576.36735371 573.7028709 569.96856766 580.55730485 563.54875565 587.39958191 C561.81393666 589.25598964 560.09069376 591.12237249 558.37053299 592.99235535 C548.89494766 603.23987701 539.06200187 613.12396294 529.20256424 623.00016785 C528.49843399 623.70688629 527.79430374 624.41360474 527.06883621 625.14173889 C525.02261889 627.19388426 522.97262948 629.24218205 520.92131424 631.28923035 C520.31339035 631.89913315 519.70546646 632.50903595 519.07912064 633.13742065 C515.32717209 636.86957753 511.45260203 640.40751813 507.43986893 643.85804749 C505.25501744 645.76599299 503.2218223 647.79377877 501.20256424 649.87516785 C497.91401896 653.20286248 494.538748 656.32853226 490.98772049 659.3712616 C488.63769655 661.43205182 486.35206208 663.55006287 484.06804276 665.68327332 C478.6376535 670.75416495 473.10193208 675.58516729 467.30412674 680.2384491 C464.75269695 682.33399278 462.31929651 684.51479939 459.89006424 686.75016785 C455.51555598 690.73200371 450.95727349 694.39258868 446.28606033 698.01408386 C442.46932756 700.97569329 438.71025172 703.99488743 434.98259354 707.0677948 C425.49332962 714.88033557 415.67514133 722.19315911 405.70256424 729.37516785 C404.97392166 729.89997742 404.24527908 730.42478699 403.49455643 730.96549988 C342.27601096 774.90619163 274.96525111 811.39444879 200.57756424 826.68766785 C199.47299881 826.91808777 198.36843338 827.14850769 197.23039627 827.38591003 C175.77795243 831.56890624 154.3332692 832.90062507 132.51506424 832.75016785 C130.7191333 832.74368729 130.7191333 832.74368729 128.88692093 832.73707581 C110.32935918 832.65880643 92.08993487 832.05941763 73.70256424 829.37516785 C72.46973709 829.19824402 71.23690994 829.02132019 69.9667244 828.83903503 C42.6517539 824.81528032 16.00285664 818.76739433 -10.29743576 810.37516785 C-11.36284592 810.03646667 -12.42825607 809.6977655 -13.52595139 809.34880066 C-69.10138575 791.45249106 -123.26361844 762.22821257 -167.40681076 723.86735535 C-170.07161775 721.56985959 -172.79157293 719.37420572 -175.54743576 717.18766785 C-187.1780286 707.69159132 -197.79402536 696.95998516 -208.42243576 686.37516785 C-209.20360764 685.59866882 -209.98477951 684.8221698 -210.78962326 684.0221405 C-215.49752274 679.30105078 -219.96159032 674.43829927 -224.29743576 669.37516785 C-225.24689542 668.29220532 -226.19736485 667.21012698 -227.14899826 666.1290741 C-234.3860635 657.83141559 -241.16315107 649.24103682 -247.7598381 640.42741394 C-249.17734468 638.53545454 -250.60552881 636.65207532 -252.03571701 634.7696991 C-270.02265197 610.89009145 -284.84506636 585.01683413 -298.29743576 558.37516785 C-299.00150558 556.98322205 -299.00150558 556.98322205 -299.71979904 555.56315613 C-331.32321837 492.58877695 -350.24262552 419.01387184 -350.50056076 348.35173035 C-350.50757507 347.05927902 -350.51458939 345.7668277 -350.52181625 344.43521118 C-350.54120057 340.29019165 -350.54624986 336.14522814 -350.54743576 332.00016785 C-350.54787762 331.29403728 -350.54831947 330.58790672 -350.54877472 329.86037827 C-350.55565966 308.88240806 -350.2837512 288.18406798 -347.29743576 267.37516785 C-347.03205002 265.43069763 -347.03205002 265.43069763 -346.76130295 263.44694519 C-344.76597706 248.91042787 -342.25866491 234.4842713 -339.23493576 220.12516785 C-339.00185715 219.01367371 -338.76877853 217.90217957 -338.52863693 216.75700378 C-336.92590937 209.44772109 -334.7973736 202.42655847 -332.29743576 195.37516785 C-331.32151993 198.75834272 -331.43886921 200.94090165 -332.29743576 204.37516785 C-332.0898967 203.81571472 -331.88235764 203.2562616 -331.66852951 202.67985535 C-328.71015036 194.98064267 -325.04059337 187.71372685 -321.29743576 180.37516785 C-320.98934982 179.74376892 -320.68126389 179.11237 -320.36384201 178.46183777 C-310.65175227 158.60129683 -297.23160303 140.45559939 -283.29743576 123.37516785 C-282.64218918 122.56330017 -282.64218918 122.56330017 -281.97370529 121.73503113 C-269.6844662 106.5914006 -255.77767043 92.25692691 -240.29743576 80.37516785 C-239.17462193 79.45566885 -238.05505746 78.53219349 -236.93806076 77.6056366 C-218.99392718 62.79853884 -199.23239958 50.52150435 -178.32673264 40.37223816 C-176.26875624 39.36107651 -174.22718597 38.32221532 -172.18806076 37.27360535 C-165.03056454 33.60305067 -157.91730057 30.29030775 -150.35212326 27.51579285 C-147.40873923 26.41672873 -144.55015332 25.1971675 -141.67243576 23.93766785 C-117.56243848 13.89965341 -91.04872527 8.23705755 -65.29743576 4.37516785 C-64.15403732 4.1932489 -63.01063889 4.01132996 -61.83259201 3.82389832 C-41.26652387 0.65927051 -20.78403605 -0.00202715 0 0 Z " fill="#B3217D" transform="translate(350.29743576049805,668.6248321533203)"/>
<path d="M0 0 C1.21482056 0.00215515 2.42964111 0.0043103 3.68127441 0.00653076 C22.73718721 0.06070424 41.42898853 0.60081989 60.3125 3.3125 C60.9823291 3.40724609 61.6521582 3.50199219 62.34228516 3.59960938 C143.33037363 15.1289674 218.15862743 46.68740189 300.41796875 108.81640625 C303.10564256 111.13411686 305.84807505 113.35330193 308.625 115.5625 C320.03163528 124.88175389 330.44961329 135.36495104 340.875 145.75 C341.70765381 146.57798096 342.54030762 147.40596191 343.39819336 148.2590332 C348.24277074 153.1163273 352.85575866 158.09881019 357.3125 163.3125 C358.26185982 164.39555005 359.212328 165.47762986 360.1640625 166.55859375 C367.96458425 175.50228343 375.21107479 184.80761811 382.3125 194.3125 C383.04581543 195.28968994 383.04581543 195.28968994 383.79394531 196.28662109 C445.10918188 278.14476071 480.53528527 378.95692244 479.58468628 574.19976807 C472.94542605 619.36311093 472.94542605 619.36311093 468.3125 626.3125 C467.9825 625.9825 467.6525 625.6525 467.3125 625.3125 C466.76335937 626.64474609 466.76335937 626.64474609 466.203125 628.00390625 C455.0950617 654.43989527 440.51038059 679.11774713 422.3125 701.3125 C421.88694824 701.83279785 421.46139648 702.3530957 421.02294922 702.88916016 C408.33305213 718.33632252 394.76349965 733.66156438 379.0703125 746.11328125 C376.2179936 748.38786417 373.45756241 750.75119993 370.6875 753.125 C343.1593244 775.97725305 311.16757321 792.53319907 277.91748047 805.30224609 C275.8415556 806.10732361 273.77947134 806.94806466 271.72265625 807.80078125 C243.68555752 819.35432395 211.34315751 825.22826255 181.22998047 828.03613281 C178.40059551 828.30415489 175.57841483 828.61491541 172.75390625 828.9296875 C110.00355574 835.35349561 48.87418956 826.35316475 -9.6875 803.3125 C-9.6875 802.9825 -9.6875 802.6525 -9.6875 802.3125 C-8.82922607 802.27286133 -7.97095215 802.23322266 -7.08666992 802.19238281 C36.04570833 800.1142673 77.02391086 792.91529077 116.3125 774.3125 C116.9926416 773.99168457 117.6727832 773.67086914 118.37353516 773.34033203 C144.45171433 760.93445264 168.42110999 744.83402925 189.42578125 725.01171875 C191.69574398 722.88919609 193.99153129 720.86531923 196.375 718.875 C218.21326365 699.86931448 235.09253019 674.24163906 249.3125 649.3125 C249.75335937 648.54212402 250.19421875 647.77174805 250.6484375 646.97802734 C289.67203438 577.99199453 296.68071934 493.50079624 276.26220703 417.64746094 C260.2934918 361.57222955 228.2483313 308.10105735 183.3125 270.3125 C182.79252441 269.8680957 182.27254883 269.42369141 181.73681641 268.96582031 C165.92075355 255.49500442 148.70221436 243.97369471 130.3125 234.3125 C129.67570312 233.97557129 129.03890625 233.63864258 128.3828125 233.29150391 C73.64148153 204.53306874 7.65867814 191.22845324 -52.48046875 209.30078125 C-62.14716223 212.34875655 -71.44427745 216.17044986 -80.6875 220.3125 C-81.5635791 220.70308594 -82.4396582 221.09367188 -83.34228516 221.49609375 C-119.27135086 237.67378711 -152.2556574 260.42356791 -182.6875 285.3125 C-183.65042969 286.09238281 -184.61335938 286.87226562 -185.60546875 287.67578125 C-195.41921614 295.64856592 -205.0880427 303.77990622 -214.4453125 312.28515625 C-216.39958424 314.05217199 -218.37809737 315.78163529 -220.375 317.5 C-225.61697867 322.06831072 -230.66090891 326.85191168 -235.73046875 331.609375 C-238.17809007 333.90561543 -240.63641321 336.18847772 -243.11328125 338.453125 C-251.51152763 346.1578171 -259.62096206 354.13866531 -267.6875 362.1875 C-268.50175446 362.99787216 -268.50175446 362.99787216 -269.3324585 363.82461548 C-274.81185745 369.2833762 -280.2090099 374.76180713 -285.23828125 380.64501953 C-287.27384787 382.98715566 -289.4650877 385.14857223 -291.6875 387.3125 C-295.1900031 390.77819 -298.50838264 394.30940792 -301.7109375 398.05078125 C-304.31135742 401.02636057 -306.99911574 403.91649305 -309.6875 406.8125 C-316.60153669 414.27610855 -323.24499627 421.94942568 -329.85668945 429.68066406 C-333.12298933 433.49766848 -336.4089213 437.29672807 -339.70825195 441.08520508 C-344.64942273 446.76172513 -349.52290226 452.47650188 -354.26171875 458.32421875 C-356.13044657 460.62627475 -358.0079429 462.91967362 -359.89453125 465.20703125 C-360.75921021 466.25540161 -360.75921021 466.25540161 -361.64135742 467.32495117 C-362.83692403 468.77272919 -364.03369844 470.21951067 -365.23168945 471.6652832 C-368.31470361 475.39463506 -371.35696795 479.1477923 -374.3359375 482.9609375 C-374.92020508 483.70190674 -375.50447266 484.44287598 -376.10644531 485.20629883 C-377.22272263 486.62528729 -378.32929276 488.05197974 -379.42480469 489.48706055 C-380.9453125 491.41015625 -380.9453125 491.41015625 -383.6875 494.3125 C-387.6875 494.3125 -387.6875 494.3125 -390.01953125 492.1875 C-390.83808594 491.23875 -391.65664062 490.29 -392.5 489.3125 C-392.94230957 488.80630127 -393.38461914 488.30010254 -393.84033203 487.77856445 C-395.13176357 486.29771356 -396.40992878 484.80532503 -397.6875 483.3125 C-398.81157283 482.04084649 -399.93645782 480.76990998 -401.0625 479.5 C-403.19093371 477.05679792 -405.29875073 474.59679478 -407.3984375 472.12890625 C-412.30099821 466.37278544 -417.22800557 460.66470046 -422.375 455.125 C-425.74333447 451.49966792 -428.9667202 447.80017607 -432.0625 443.9375 C-436.11351724 438.89913806 -440.45973557 434.2094524 -444.88793945 429.5065918 C-448.93004193 425.19040843 -452.68338108 420.70755501 -456.37890625 416.08984375 C-459.04029458 412.88807201 -461.84212246 409.85015082 -464.6875 406.8125 C-469.12584906 402.07385857 -473.27892453 397.19130421 -477.34375 392.125 C-480.01958278 388.91400066 -482.83109707 385.86222364 -485.6875 382.8125 C-490.1425019 378.05560621 -494.31979623 373.15749052 -498.3984375 368.0703125 C-500.95753735 364.9871649 -503.64361705 362.05476954 -506.375 359.125 C-510.47490299 354.72557041 -514.1997231 350.21424051 -517.6875 345.3125 C-516.92566406 344.42949219 -516.16382813 343.54648437 -515.37890625 342.63671875 C-510.59030707 337.07496032 -505.81306687 331.51140283 -501.1875 325.8125 C-497.25409231 320.96699777 -493.20549791 316.23083749 -489.12890625 311.50610352 C-486.08441338 307.96920459 -483.110939 304.38841049 -480.1875 300.75 C-475.83847244 295.38883512 -471.17950516 290.35679261 -466.47265625 285.3125 C-463.70903664 282.34837706 -461.03251292 279.31674383 -458.37890625 276.25390625 C-451.3054954 268.13500281 -443.98659392 260.22818936 -436.6875 252.3125 C-436.15495605 251.73338867 -435.62241211 251.15427734 -435.07373047 250.55761719 C-427.86082639 242.72309269 -420.53233543 235.04054401 -412.92480469 227.58666992 C-409.89914191 224.60496046 -407.0137155 221.57505615 -404.25 218.34765625 C-400.63503422 214.16134953 -396.69281228 210.42819532 -392.625 206.6875 C-387.01629839 201.4763089 -381.50611483 196.19600084 -376.125 190.75 C-372.1817362 186.7674019 -368.22152616 182.90502322 -363.94140625 179.28125 C-360.61312325 176.37404959 -357.40916403 173.33687136 -354.1875 170.3125 C-349.10038338 165.54680508 -343.98835279 160.84071927 -338.6875 156.3125 C-337.70007812 155.45785156 -336.71265625 154.60320312 -335.6953125 153.72265625 C-321.99386943 141.88335209 -308.01418588 130.38707341 -293.6875 119.3125 C-292.91422363 118.71179688 -292.14094727 118.11109375 -291.34423828 117.4921875 C-279.84870277 108.57465406 -268.1982845 100.00741965 -256.09863281 91.92773438 C-253.62708127 90.27202508 -251.16839744 88.59841515 -248.7109375 86.921875 C-228.43804542 73.15731174 -207.38096096 60.70099066 -185.6875 49.3125 C-184.76743164 48.82716797 -183.84736328 48.34183594 -182.89941406 47.84179688 C-140.24924274 25.49351932 -93.58498913 8.63730411 -45.6875 2.3125 C-44.38272705 2.13662354 -43.0779541 1.96074707 -41.73364258 1.77954102 C-27.83866614 0.04254897 -13.98692472 -0.04461425 0 0 Z " fill="#F5812E" transform="translate(1515.6875,498.6875)"/>
<path d="M0 0 C0.33 0 0.66 0 1 0 C0 8.57142857 0 8.57142857 -1 12 C-2.32 12.33 -3.64 12.66 -5 13 C-4.54554036 11.58208592 -4.08625056 10.16571954 -3.625 8.75 C-3.24214844 7.56664062 -3.24214844 7.56664062 -2.8515625 6.359375 C-2.04826333 4.13372042 -1.10288338 2.09068328 0 0 Z " fill="#57ABBD" transform="translate(1983,1123)"/>
<path d="M0 0 C1.08635236 3.32069408 0.90041441 5.66205214 0.1875 9.0625 C0.01605469 9.91972656 -0.15539062 10.77695312 -0.33203125 11.66015625 C-1 14 -1 14 -3 17 C-4.29477815 12.61078349 -3.6054454 9.94228883 -2.0625 5.6875 C-1.68222656 4.61886719 -1.30195313 3.55023437 -0.91015625 2.44921875 C-0.60980469 1.64097656 -0.30945313 0.83273437 0 0 Z " fill="#512C88" transform="translate(18,864)"/>
<path d="M0 0 C0.66 0.33 1.32 0.66 2 1 C1.34 3.97 0.68 6.94 0 10 C-2 6 -2 6 -1.125 2.75 C-0.75375 1.8425 -0.3825 0.935 0 0 Z " fill="#D7AE58" transform="translate(1985,1115)"/>
<path d="M0 0 C-0.56371414 3.26954202 -1.49962266 4.82575883 -4 7 C-4 5.02 -4 3.04 -4 1 C-2 0 -2 0 0 0 Z " fill="#3094D2" transform="translate(24,859)"/>
</svg>
